<svg id="Layer_1" data-name="Layer 1" xmlns="http://www.w3.org/2000/svg" viewBox="0 0 41 41"><defs><style>.cls-1{fill:#ffce03;}.cls-2{fill:#fff;}</style></defs><title>icon</title><circle class="cls-1" cx="20.5" cy="20.5" r="20"/><path class="cls-2" d="M26.17922,32.35579H15.34977a3.95608,3.95608,0,0,1-3.951-3.95149V15.23409a3.95608,3.95608,0,0,1,3.951-3.95149H26.17922a3.95608,3.95608,0,0,1,3.951,3.95149V28.4043A3.95608,3.95608,0,0,1,26.17922,32.35579ZM15.34977,12.454a2.7832,2.7832,0,0,0-2.78058,2.78V28.4043a2.7832,2.7832,0,0,0,2.78058,2.78H26.17922a2.7832,2.7832,0,0,0,2.78058-2.78V15.23409a2.7832,2.7832,0,0,0-2.78058-2.78Z"/><path class="cls-2" d="M29.545,22.91711a2.2454,2.2454,0,0,1-1.6537-.74276,1.10912,1.10912,0,0,0-.85471-.42762,1.17922,1.17922,0,0,0-.85948.4064,2.63117,2.63117,0,0,1-1.88449.764,4.40751,4.40751,0,0,1-2.20175-.694,2.86023,2.86023,0,0,0-1.32636-.47643,4.24779,4.24779,0,0,0-1.63354.52948,5.12636,5.12636,0,0,1-2.1296.6409,2.2454,2.2454,0,0,1-1.6537-.74276,1.10912,1.10912,0,0,0-.85471-.42762,3.82563,3.82563,0,0,0-2.1105,1.01334.58523.58523,0,0,1-.79794-.8563,5.04026,5.04026,0,0,1,2.90844-1.32848,2.2454,2.2454,0,0,1,1.6537.74276,1.10912,1.10912,0,0,0,.85471.42762,4.23743,4.23743,0,0,0,1.6346-.53054,5.13359,5.13359,0,0,1,2.12854-.63984,3.84014,3.84014,0,0,1,1.88608.61861,3.35223,3.35223,0,0,0,1.642.55177,1.48484,1.48484,0,0,0,1.12316-.48173,2.29127,2.29127,0,0,1,1.62081-.68865,2.2454,2.2454,0,0,1,1.6537.74276,1.10912,1.10912,0,0,0,.85471.42762.58572.58572,0,0,1,0,1.17144Z"/><path class="cls-2" d="M24.27677,12.01429V9.702a1.34634,1.34634,0,0,0-1.34636-1.34621H18.59881A1.34634,1.34634,0,0,0,17.25245,9.702v2.31229Z"/></svg>