<svg id="Layer_1" data-name="Layer 1" xmlns="http://www.w3.org/2000/svg" viewBox="0 0 19 19.5547"><defs><style>.cls-1{fill:#22346c;}</style></defs><title>icon</title><path class="cls-1" d="M18.88591,16.14026l-2.58535-2.58535a.9461.9461,0,0,0-1.61505.669v.38876a.16718.16718,0,0,1-.167.167H14.257V4.01222a.38958.38958,0,0,0-.11409-.27544L10.52023.1141A.38958.38958,0,0,0,10.24479,0H.38954A.38953.38953,0,0,0,0,.38954V19.16516a.38953.38953,0,0,0,.38954.38954H13.86748a.38953.38953,0,0,0,.38954-.38954V18.05175h.2615a.16718.16718,0,0,1,.167.167v.38876a.94576.94576,0,0,0,1.61505.669l2.58535-2.58535a.38952.38952,0,0,0,0-.55088ZM10.63433,1.33l2.29273,2.29273H10.63433Zm2.84361,17.44567H.77907V.77907H9.85526V4.01222a.38953.38953,0,0,0,.38954.38954h3.23315v10.3779h-.818a.38953.38953,0,0,0-.38954.38954v2.493a.38953.38953,0,0,0,.38954.38954h.818Zm2.27169-.05a.167.167,0,0,1-.28506-.11811v-.38876a.94713.94713,0,0,0-.94607-.94607H13.04945v-1.714h1.46906a.94713.94713,0,0,0,.94607-.94607V14.2239a.167.167,0,0,1,.28506-.11807l2.30991,2.30987Z"/><path class="cls-1" d="M2.74623,6.77792H9.193a.38954.38954,0,1,0,0-.77907H2.74623a.38954.38954,0,1,0,0,.77907Z"/><path class="cls-1" d="M11.51078,8.56979H2.74623a.38954.38954,0,1,0,0,.77907h8.76456a.38954.38954,0,1,0,0-.77907Z"/><path class="cls-1" d="M11.51078,11.14073H2.74623a.38954.38954,0,0,0,0,.77907h8.76456a.38954.38954,0,1,0,0-.77907Z"/><path class="cls-1" d="M11.51078,13.71166H2.74623a.38954.38954,0,1,0,0,.77907h8.76456a.38954.38954,0,1,0,0-.77907Z"/><path class="cls-1" d="M11.51078,5.99885h-.857a.38954.38954,0,0,0,0,.77907h.857a.38954.38954,0,1,0,0-.77907Z"/></svg>