<svg id="Layer_1" data-name="Layer 1" xmlns="http://www.w3.org/2000/svg" viewBox="0 0 17 17.33773"><defs><style>.cls-1{fill:#22346c;}</style></defs><title>icon</title><path class="cls-1" d="M17,14.03567V.46638A.46638.46638,0,0,0,16.53362,0H.46638A.46638.46638,0,0,0,0,.46638V16.87325a.46448.46448,0,0,0,.46448.46448h16.071A.46448.46448,0,0,0,17,16.87325V14.03567Zm-.929,1.77321H.929V1.06122H16.071V15.80888Z"/><path class="cls-1" d="M13.72541,6.879H3.27459a.46448.46448,0,0,0,0,.929H13.72541a.46448.46448,0,0,0,0-.929Z"/><path class="cls-1" d="M13.72541,3.63948H3.27459a.46448.46448,0,0,0,0,.929H13.72541a.46448.46448,0,0,0,0-.929Z"/><path class="cls-1" d="M13.72541,10.11859H3.27459a.46448.46448,0,0,0,0,.929H13.72541a.46448.46448,0,0,0,0-.929Z"/><path class="cls-1" d="M13.72541,13.35815H3.27459a.46448.46448,0,0,0,0,.929H13.72541a.46448.46448,0,0,0,0-.929Z"/></svg>