<svg id="Layer_1" data-name="Layer 1" xmlns="http://www.w3.org/2000/svg" viewBox="0 0 10.57121 13.54455"><defs><style>.cls-1{fill:#b9b9b9;}</style></defs><title>icon</title><path class="cls-1" d="M8.34147,13.54455H2.2298A2.23264,2.23264,0,0,1,0,11.31451V3.88182a2.23264,2.23264,0,0,1,2.22975-2.23H8.34147a2.23264,2.23264,0,0,1,2.22975,2.23v7.43269A2.23264,2.23264,0,0,1,8.34147,13.54455ZM2.2298,2.31288A1.57072,1.57072,0,0,0,.66056,3.88182v7.43269A1.57072,1.57072,0,0,0,2.2298,12.88344H8.34147A1.57072,1.57072,0,0,0,9.9107,11.31451V3.88182A1.57072,1.57072,0,0,0,8.34147,2.31288Z"/><path class="cls-1" d="M10.241,8.21778a1.26721,1.26721,0,0,1-.93328-.41918.62594.62594,0,0,0-.48236-.24133.6655.6655,0,0,0-.48505.22935,1.48492,1.48492,0,0,1-1.06352.43116,2.48741,2.48741,0,0,1-1.24257-.39164,1.61419,1.61419,0,0,0-.74854-.26888,2.39727,2.39727,0,0,0-.9219.29882,2.8931,2.8931,0,0,1-1.20185.36169A1.26721,1.26721,0,0,1,2.2286,7.7986a.62594.62594,0,0,0-.48236-.24133,2.159,2.159,0,0,0-1.19108.57188.33028.33028,0,0,1-.45032-.48326,2.8445,2.8445,0,0,1,1.6414-.74974,1.26721,1.26721,0,0,1,.93328.41918.62594.62594,0,0,0,.48236.24133,2.39142,2.39142,0,0,0,.9225-.29942,2.89718,2.89718,0,0,1,1.20126-.3611,2.16721,2.16721,0,0,1,1.06442.34912,1.89185,1.89185,0,0,0,.92669.31139.838.838,0,0,0,.63386-.27187,1.29309,1.29309,0,0,1,.91471-.38864,1.26721,1.26721,0,0,1,.93328.41918.62594.62594,0,0,0,.48236.24133.33055.33055,0,0,1,0,.66111Z"/><path class="cls-1" d="M7.26781,2.0647V.75974A.75982.75982,0,0,0,6.508,0H4.06341a.75982.75982,0,0,0-.75982.75974v1.305Z"/></svg>