<svg id="Layer_1" data-name="Layer 1" xmlns="http://www.w3.org/2000/svg" viewBox="0 0 33 33"><defs><style>.cls-1{opacity:0.95;}.cls-2{fill:#ccc;}.cls-3{fill:#fff;}</style></defs><title>icon</title><g class="cls-1"><circle class="cls-2" cx="16.5" cy="16.5" r="16"/></g><path class="cls-3" d="M18.26332,11.51225,10.0101,19.76606a.3289.3289,0,0,0-.08578.15074l-.91479,3.67177a.32484.32484,0,0,0,.315.40356.32283.32283,0,0,0,.07864-.00976l3.67177-.91491a.32454.32454,0,0,0,.15074-.08566l8.25393-8.25322Z"/><path class="cls-3" d="M23.52434,10.38688l-.91872-.91872a1.66361,1.66361,0,0,0-2.2975,0l-1.12537,1.12537L22.399,13.80976l1.12537-1.12537a1.625,1.625,0,0,0,0-2.2975Z"/></svg>