<svg id="Layer_1" data-name="Layer 1" xmlns="http://www.w3.org/2000/svg" viewBox="0 0 17 21.41499"><defs><style>.cls-1{fill:#22346c;}</style></defs><title>icon</title><path class="cls-1" d="M12.80182,11.16976A4.58855,4.58855,0,0,1,8.22963,6.58635,4.13671,4.13671,0,0,1,8.501,5.12271L7.14539,3.39444,2.63683,9.142,2.628,9.15362C1.46392,10.7413.419,12.33483.419,14.36819a6.72641,6.72641,0,0,0,6.71114,6.72637l.01611.00009a6.72563,6.72563,0,0,0,6.72553-6.72637,6.59212,6.59212,0,0,0-.88681-3.202c-.05691.0021-.114.00353-.1714.00353Z"/><g id="path3062"><path class="cls-1" d="M12.81315,2.06592,14.43827,4.137A4.09841,4.09841,0,0,1,15.50352,6.4706a2.69049,2.69049,0,0,1-5.381-.00006,4.046,4.046,0,0,1,1.04407-2.30562l1.64655-2.099M12.813.32034,10.31886,3.49991A5.03705,5.03705,0,0,0,9.04508,6.47054a3.76793,3.76793,0,0,0,3.76791,3.768l.00055,0A3.7675,3.7675,0,0,0,16.581,6.4706,5.03737,5.03737,0,0,0,15.3072,3.49994L12.813.32034Z"/></g></svg>