<svg id="Layer_1" data-name="Layer 1" xmlns="http://www.w3.org/2000/svg" viewBox="0 0 22.95103 20.40085"><defs><style>.cls-1{fill:#22346c;}</style></defs><title>icon</title><path class="cls-1" d="M22.22391,17.16236l-9.12244-15.801a1.87676,1.87676,0,0,0-3.25061,0L.72745,17.16236A1.877,1.877,0,0,0,2.353,19.97816H20.59836a1.87707,1.87707,0,0,0,1.62555-2.8158Zm-10.74774.28711a1.17993,1.17993,0,1,1,1.17993-1.17993A1.18,1.18,0,0,1,11.47617,17.44947Zm1.17993-5.08276a1.06083,1.06083,0,0,1-1.06091,1.06079h-.238a1.06083,1.06083,0,0,1-1.06091-1.06079v-5.071a1.06094,1.06094,0,0,1,1.06091-1.06091h.238A1.06094,1.06094,0,0,1,12.6561,7.29566Z"/></svg>