<svg id="Layer_1" data-name="Layer 1" xmlns="http://www.w3.org/2000/svg" viewBox="0 0 12 14"><defs><style>.cls-1{fill:#b9b9b9;}</style></defs><title>icon</title><path class="cls-1" d="M8.80473,7.3014a2.99167,2.99167,0,0,1-2.981-2.98832,2.69707,2.69707,0,0,1,.17693-.95427L5.11683,2.232,2.17731,5.97932l-.00576.00759A5.74727,5.74727,0,0,0,.73134,9.38673,4.38552,4.38552,0,0,0,5.1069,13.77222l.0105.00006A4.385,4.385,0,0,0,9.50235,9.38679a4.298,4.298,0,0,0-.57819-2.08767c-.0371.00137-.07432.0023-.11175.0023Z"/><path id="path3062" class="cls-1" d="M8.81214,1.36583,9.87169,2.7162a2.67156,2.67156,0,0,1,.69448,1.5214,1.75416,1.75416,0,0,1-3.50832,0,2.6377,2.6377,0,0,1,.68076-1.50326L8.81214,1.36583M8.81206.22772l-1.62618,2.073a3.28409,3.28409,0,0,0-.8305,1.93685A2.45666,2.45666,0,0,0,8.812,6.69425h.00036a2.45635,2.45635,0,0,0,2.45628-2.45664,3.284,3.284,0,0,0-.83046-1.93677L8.81206.22772Z"/></svg>