<svg id="Layer_1" data-name="Layer 1" xmlns="http://www.w3.org/2000/svg" viewBox="0 0 41.03185 41.03185"><defs><style>.cls-1{fill:#ffce03;}.cls-2{fill:#fff;}</style></defs><title>icon</title><circle class="cls-1" cx="20.51592" cy="20.51592" r="20"/><path class="cls-2" d="M26.19514,32.37171H15.36569a3.95608,3.95608,0,0,1-3.951-3.95149V15.25a3.95608,3.95608,0,0,1,3.951-3.95149H26.19514A3.95608,3.95608,0,0,1,30.1461,15.25V28.42022A3.95608,3.95608,0,0,1,26.19514,32.37171ZM15.36569,12.47a2.7832,2.7832,0,0,0-2.78058,2.78V28.42022a2.7832,2.7832,0,0,0,2.78058,2.78H26.19514a2.7832,2.7832,0,0,0,2.78058-2.78V15.25a2.7832,2.7832,0,0,0-2.78058-2.78Z"/><path class="cls-2" d="M29.56091,22.933a2.2454,2.2454,0,0,1-1.6537-.74276,1.10912,1.10912,0,0,0-.85471-.42762,1.17922,1.17922,0,0,0-.85948.4064,2.63117,2.63117,0,0,1-1.88449.764,4.40751,4.40751,0,0,1-2.20175-.694,2.86023,2.86023,0,0,0-1.32636-.47643,4.24779,4.24779,0,0,0-1.63354.52948,5.12636,5.12636,0,0,1-2.1296.6409,2.2454,2.2454,0,0,1-1.6537-.74276,1.10912,1.10912,0,0,0-.85471-.42762,3.82563,3.82563,0,0,0-2.1105,1.01334.58523.58523,0,0,1-.79794-.8563,5.04026,5.04026,0,0,1,2.90844-1.32848,2.2454,2.2454,0,0,1,1.6537.74276,1.10912,1.10912,0,0,0,.85471.42762,4.23743,4.23743,0,0,0,1.6346-.53054,5.13359,5.13359,0,0,1,2.12854-.63984,3.84014,3.84014,0,0,1,1.88608.61861,3.35223,3.35223,0,0,0,1.642.55177,1.48484,1.48484,0,0,0,1.12316-.48173,2.29127,2.29127,0,0,1,1.62081-.68865,2.2454,2.2454,0,0,1,1.6537.74276,1.10912,1.10912,0,0,0,.85471.42762.58572.58572,0,0,1,0,1.17144Z"/><path class="cls-2" d="M24.29269,12.03021V9.71792a1.34634,1.34634,0,0,0-1.34636-1.34621H18.61473a1.34634,1.34634,0,0,0-1.34636,1.34621v2.31229Z"/></svg>