<svg id="Layer_1" data-name="Layer 1" xmlns="http://www.w3.org/2000/svg" viewBox="0 0 22 24.86605"><defs><style>.cls-1{fill:#b9b9b9;}</style></defs><title>icon</title><path class="cls-1" d="M21.22293,6.95526H17.13377a.77707.77707,0,0,0-.77707.77707V9.34891h-3.3121a.77707.77707,0,0,0-.77707.77707v1.61664H8.95544a.77707.77707,0,0,0-.77707.77707v2.215H4.86628a.77707.77707,0,0,0-.77707.77707v1.49814H.77707A.77707.77707,0,0,0,0,17.78693V24.089a.77707.77707,0,0,0,.77707.77707H21.22293A.77707.77707,0,0,0,22,24.089V7.73232a.777.777,0,0,0-.77707-.77707ZM1.55413,18.56394h2.535v4.748h-2.535Zm4.08916-2.2752h2.535v7.02317h-2.535Zm4.08916-2.992h2.535V23.31191h-2.535ZM13.82167,10.903h2.535V23.31191h-2.535Zm6.6242,12.40887h-2.535V8.50939h2.535ZM1.2214,12.20837a.777.777,0,0,1,.50432-.97638C6.488,9.71345,13.68563,5.36965,17.82137,1.59321L16.2349,1.626l-.01637.00015A.77705.77705,0,0,1,16.20284.0722l3.48684-.072A.77708.77708,0,0,1,20.48.84325l-.297,3.47489a.777.777,0,1,1-1.54845-.13234L18.7488,2.849a52.12886,52.12886,0,0,1-7.09806,5.23582,44.77612,44.77612,0,0,1-9.45286,4.62787.77623.77623,0,0,1-.97648-.50432Z"/></svg>