<svg id="Layer_1" data-name="Layer 1" xmlns="http://www.w3.org/2000/svg" viewBox="0 0 40.78185 40.78185"><defs><style>.cls-1{fill:#ffce03;}.cls-2{fill:#fff;}</style></defs><title>icon</title><circle class="cls-1" cx="20.39092" cy="20.39092" r="20"/><path class="cls-2" d="M22.29094,16.0646a.58594.58594,0,0,0-.16357-.31789l-2.76109-2.76109a.58569.58569,0,0,0-.82831,0l-.96639.96639-.69028-.69028a.58569.58569,0,0,0-.82831,0l-2.485,2.485a.58573.58573,0,0,0-.08809.71551l.59305.98837-3.266,3.26605a.58569.58569,0,0,0,0,.82832l.69028.69024-.61851.61851a2.90943,2.90943,0,0,0-.8578,2.07085v6.11381a.58571.58571,0,0,0,1.17143,0V24.92457a1.74562,1.74562,0,0,1,.51469-1.24249l.61851-.61851,1.5186,1.5186a2.93188,2.93188,0,0,0,4.14161,0l4.69382-4.69382a.58583.58583,0,0,0,.16357-.51047Zm-5.1335,7.68924a1.75915,1.75915,0,0,1-2.485,0l-.41418-.41418,2.17534-2.17534v.79481a.58571.58571,0,1,0,1.17143,0v-1.2612l1.73883.86939Z"/><path class="cls-2" d="M29.529,16.22626c-.56937-.98147-1.13042-1.79555-1.154-1.82972a.839.839,0,0,0-1.3806,0c-.0236.03417-.58464.84825-1.154,1.82972-1.10419,1.90344-1.23188,2.69312-1.23188,3.12155a3.07619,3.07619,0,1,0,6.15239,0C30.76092,18.91938,30.63324,18.12969,29.529,16.22626Z"/><path class="cls-2" d="M27.58957,12.08613a.58573.58573,0,0,0,.58567-.58571V9.74351a.5864.5864,0,0,0-.58571-.58571l-.99579,0a6.4975,6.4975,0,0,0-4.625,1.91567l-1.429,1.429,2.07081,2.07081,1.42914-1.42914a3.58826,3.58826,0,0,1,2.55383-1.05788Z"/></svg>