<svg id="Layer_1" data-name="Layer 1" xmlns="http://www.w3.org/2000/svg" viewBox="0 0 137.15867 150.46176"><defs><style>.cls-1{fill:#ffc863;}.cls-2{fill:#f0f0f2;}.cls-3{fill:#48c2ff;}.cls-4{fill:#d1ddeb;}.cls-5{fill:#e4686a;}.cls-6{fill:#606076;}.cls-7{fill:#fff;}</style></defs><title>icon</title><path class="cls-1" d="M94.75526,7.486V143.05128H20.08574V7.486A7.486,7.486,0,0,1,27.57172,0H87.26929a7.486,7.486,0,0,1,7.486,7.486Z"/><path class="cls-2" d="M75.4205,30.9849v24.947a3.86792,3.86792,0,0,1-3.86793,3.86792H43.28843a3.86792,3.86792,0,0,1-3.86793-3.86792V30.9849A3.86792,3.86792,0,0,1,43.28843,27.117H71.55258A3.86792,3.86792,0,0,1,75.4205,30.9849Z"/><path class="cls-3" d="M121.08744,63.57458a.56089.56089,0,0,1-.40849-.1753l-.00221-.00221L118.29309,60.896a1.56881,1.56881,0,0,1-.1549-.18412.56469.56469,0,0,1,.85666-.73318l2.50274,2.64331a.56481.56481,0,0,1-.41014.95258Z"/><path class="cls-4" d="M125.41544,77.596l-.15192,3.86-7.3339-.63168a4.73488,4.73488,0,0,1-3.07613-1.4738,2.90437,2.90437,0,0,1-.24559-.29242,4.78117,4.78117,0,0,1-1.06458-3.5558,51.11725,51.11725,0,0,1,1.04117-8.25793,48.40141,48.40141,0,0,1,3.74291-7.14672l.17534.17541.082.09359,2.503,2.64348c-.23388.39765-.46776.80708-.71334,1.21644a30.497,30.497,0,0,0-2.10548,4.18747,48.80982,48.80982,0,0,0-.86555,7.369c0,.03513-.01171.07017-.01171.117a.93853.93853,0,0,0,.21046.71348.87675.87675,0,0,0,.6785.3626l1.06431.09359Z"/><path class="cls-4" d="M125.0996,50.23727l-.23387.22224-2.57324,2.43288-5.62623-4.99448a6.56794,6.56794,0,0,0-2.5147-1.427L104.44318,43.418a1.9387,1.9387,0,0,1-.83043-.503,1.93981,1.93981,0,0,1,1.97669-3.18156l9.7201,3.04121a10.69565,10.69565,0,0,1,3.93025,2.23405Z"/><path class="cls-5" d="M137.12185,60.70418l-.98716,6.10461a1.56868,1.56868,0,0,1-1.6494,1.32525l-2.80556-.1974L130.5518,85.79922l-.98681-.07047-3.454-.25376-1.015-.07048.169-3.94752.15523-3.863.3948-9.601-4.72309-4.97667-2.50955-2.6505-.08433-.0987a3.03954,3.03954,0,0,1,.32424-4.07444l3.46813-3.299,2.57977-2.43907a3.04651,3.04651,0,0,1,4.24362.18328l7.28908,7.68362A2.8366,2.8366,0,0,1,137.12185,60.70418Z"/><path class="cls-5" d="M12.12018,49.10267v89.2699h7.96551V13.60336h-.94744a7.02364,7.02364,0,0,0-7.01807,7.01808V49.10267Z"/><path class="cls-5" d="M94.75531,107.90244V13.60336h.94744a7.02364,7.02364,0,0,1,7.01808,7.01808V138.37257H94.75531V107.90244Z"/><path class="cls-6" d="M129.56786,85.72529a.78311.78311,0,0,1,0,.234c-.36238,3.9184-3.71949,38.40058-11.112,43.76937a4.29392,4.29392,0,0,1-2.59665.90068,3.98751,3.98751,0,0,1-.889-.0936c-5.84839-1.32174-9.77836-11.35753-11.88384-23.20639V79.70148h.07025a1.77142,1.77142,0,0,1,1.68427,1.83634c-1.02947,22.99593,5.13477,44.2724,10.88978,45.57073.09338.02341.28071.05847.66651-.21054,4.597-3.357,8.37508-27.08973,9.67327-41.2546a.93073.93073,0,0,1,.03513-.17541Z"/><path class="cls-7" d="M86.14106,87.94556v31.66116a3.02146,3.02146,0,0,1-3.02864,3.02873H33.18532a3.03813,3.03813,0,0,1-3.04426-3.04436V87.94556a3.02151,3.02151,0,0,1,3.02864-3.02873H83.11243A3.02151,3.02151,0,0,1,86.14106,87.94556Z"/><path class="cls-6" d="M81.58275,113.73278a.94033.94033,0,0,1-.94087-.94087,22.50048,22.50048,0,0,0-45.001,0,.94087.94087,0,1,1-1.88174,0,24.38223,24.38223,0,0,1,48.76445,0A.94033.94033,0,0,1,81.58275,113.73278Z"/><path class="cls-5" d="M62.40464,113.93794a4.27376,4.27376,0,0,1-5.41621,4.11183,4.21207,4.21207,0,0,1-2.947-2.91391,4.26462,4.26462,0,0,1,2.05557-4.93193,1.89267,1.89267,0,0,0,.86769-1.183l1.29712-4.68136,1.36782,4.874a1.89132,1.89132,0,0,0,.77083,1.11121A4.25963,4.25963,0,0,1,62.40464,113.93794Z"/><path class="cls-6" d="M58.14094,99.4231a.94032.94032,0,0,1-.94087-.94087V93.85874a.94087.94087,0,1,1,1.88174,0v4.62349A.94032.94032,0,0,1,58.14094,99.4231Z"/><path class="cls-6" d="M68.2608,103.61475a.94087.94087,0,0,1-.66522-1.60609l3.26915-3.26916a.94077.94077,0,0,1,1.33046,1.33045L68.926,103.3391A.93784.93784,0,0,1,68.2608,103.61475Z"/><path class="cls-6" d="M72.45245,113.73462v-1.88175h3.65783a17.99351,17.99351,0,0,0-35.93775-.00184l3.65689.00184a.94087.94087,0,1,1,0,1.88175H39.20593a.9411.9411,0,0,1-.94087-.94087,19.875,19.875,0,1,1,39.74992-.00184.94092.94092,0,0,1-.94087.94087Z"/><path class="cls-6" d="M48.02107,103.61475a.93782.93782,0,0,1-.66522-.27564l-3.26916-3.26916a.94077.94077,0,0,1,1.33045-1.33045l3.26916,3.26916a.94087.94087,0,0,1-.66522,1.60609Z"/><path class="cls-6" d="M114.841,150.26814a.19953.19953,0,0,1-.19361.19361H0v-.38723a11.69317,11.69317,0,0,1,11.69755-11.69762h91.25222A11.88516,11.88516,0,0,1,114.841,150.26814Z"/></svg>