<svg id="Layer_1" data-name="Layer 1" xmlns="http://www.w3.org/2000/svg" viewBox="0 0 33 33"><defs><style>.cls-1{opacity:0.95;}.cls-2{fill:#ccc;}.cls-3{fill:#fff;}</style></defs><title>icon</title><g class="cls-1"><circle class="cls-2" cx="16.5" cy="16.5" r="16"/></g><g id="bin"><path class="cls-3" d="M14.35714,10.60714v-.53571A1.07148,1.07148,0,0,1,15.42857,9h2.14286a1.07148,1.07148,0,0,1,1.07143,1.07143v.53571h4.82143a.53571.53571,0,1,1,0,1.07143H9.53571a.53571.53571,0,1,1,0-1.07143Z"/><path class="cls-3" d="M11.14286,13.28571H21.85714s-.7117,7.11589-.975,9.74946A1.07126,1.07126,0,0,1,19.81607,24H13.18393a1.07126,1.07126,0,0,1-1.06607-.96482C11.85455,20.40161,11.14286,13.28571,11.14286,13.28571Zm4.82143,2.14286v6.42857a.53571.53571,0,0,0,1.07143,0V15.42857a.53571.53571,0,0,0-1.07143,0Zm2.14286,0v6.42857a.53571.53571,0,0,0,1.07143,0V15.42857a.53571.53571,0,1,0-1.07143,0Zm-4.28571,0v6.42857a.53571.53571,0,0,0,1.07143,0V15.42857a.53571.53571,0,1,0-1.07143,0Z"/></g></svg>