<svg id="Layer_1" data-name="Layer 1" xmlns="http://www.w3.org/2000/svg" viewBox="0 0 11.98598 13.54455"><defs><style>.cls-1{fill:#b9b9b9;}</style></defs><title>icon</title><path class="cls-1" d="M5.993,11.62058A3.20834,3.20834,0,1,1,9.2013,8.41213,3.2121,3.2121,0,0,1,5.993,11.62058Zm0-5.71032A2.50187,2.50187,0,1,0,8.49483,8.41213,2.50478,2.50478,0,0,0,5.993,5.91026Z"/><circle class="cls-1" cx="5.99298" cy="8.41217" r="0.27042"/><rect class="cls-1" x="5.81679" y="6.09254" width="0.37783" height="0.56786" rx="0.13588" ry="0.13588"/><path class="cls-1" d="M5.72559,8.76129a.139.139,0,0,1-.03511-.0045A.13641.13641,0,0,1,5.608,8.69335l-.053-.09188a.136.136,0,0,1,.04976-.18558l1.25045-.722a.136.136,0,0,1,.18558.04976l.053.09188a.13589.13589,0,0,1-.04953.18569l-1.25056.722A.13645.13645,0,0,1,5.72559,8.76129Z"/><path class="cls-1" d="M7.88069,8.22324h.2961a.13588.13588,0,0,1,.13588.13588v.106a.136.136,0,0,1-.136.136H7.8808a.136.136,0,0,1-.136-.136v-.106A.13588.13588,0,0,1,7.88069,8.22324Z"/><rect class="cls-1" x="5.80921" y="10.17058" width="0.37789" height="0.56774" rx="0.13588" ry="0.13588"/><rect class="cls-1" x="3.67343" y="8.23595" width="0.56769" height="0.37789" rx="0.13588" ry="0.13588"/><path class="cls-1" d="M6.17279,8.89956a.14034.14034,0,0,1-.03522-.00462.13607.13607,0,0,1-.08247-.06332l-.8578-1.48573a.13592.13592,0,0,1,.04982-.18558l.09188-.053a.13589.13589,0,0,1,.06794-.0183.13305.13305,0,0,1,.03522.00473.13621.13621,0,0,1,.08253.06327l.8578,1.48562a.13593.13593,0,0,1-.04993.18558l-.09182.05312A.13567.13567,0,0,1,6.17279,8.89956Z"/><path class="cls-1" d="M10.32567,1.83546v.14842a1.41967,1.41967,0,0,1-2.83934,0V1.83546H4.49965v.14842a1.41967,1.41967,0,0,1-2.83934,0V1.83546H0V13.54455H11.986V1.83546Zm.40388,10.33411H1.25643V4.65491h9.47312Z"/><path class="cls-1" d="M3.08,0A1.002,1.002,0,0,0,2.078,1.00194v.98194a1.00195,1.00195,0,0,0,2.00389,0V1.00194A1.00192,1.00192,0,0,0,3.08,0Z"/><path class="cls-1" d="M8.906,0A1.002,1.002,0,0,0,7.904,1.00194v.98194a1.002,1.002,0,0,0,2.00394,0V1.00194A1.002,1.002,0,0,0,8.906,0Z"/></svg>