<svg id="Layer_1" data-name="Layer 1" xmlns="http://www.w3.org/2000/svg" viewBox="0 0 24 22.18437"><defs><style>.cls-1{fill:#fff;}</style></defs><title>icon</title><path class="cls-1" d="M23.54237,18.56839,13.74607,1.60016a2.0154,2.0154,0,0,0-3.49073,0L.458,18.56839a2.01564,2.01564,0,0,0,1.74563,3.0238H21.79674a2.01573,2.01573,0,0,0,1.74563-3.0238Zm-11.54166.30832a1.26709,1.26709,0,1,1,1.26709-1.26709A1.26711,1.26711,0,0,1,12.0007,18.87671Zm1.26709-5.45822a1.1392,1.1392,0,0,1-1.13928,1.13915h-.25562a1.1392,1.1392,0,0,1-1.13928-1.13915V7.97285a1.13931,1.13931,0,0,1,1.13928-1.13928h.25562A1.13931,1.13931,0,0,1,13.2678,7.97285Z"/></svg>