<svg id="Layer_1" data-name="Layer 1" xmlns="http://www.w3.org/2000/svg" viewBox="0 0 16.76643 18.162"><defs><style>.cls-1{fill:#22346c;}</style></defs><title>icon</title><path class="cls-1" d="M9.91921,5.58356a.47368.47368,0,0,0-.13223-.257L7.55488,3.09449a.47348.47348,0,0,0-.66962,0L6.104,3.87572l-.558-.558a.47348.47348,0,0,0-.66962,0L2.86749,5.32658a.47351.47351,0,0,0-.07121.57842l.47943.799L.63543,9.34432a.47348.47348,0,0,0,0,.66962l.558.558-.5.5A2.352,2.352,0,0,0,0,12.746V17.6885a.4735.4735,0,0,0,.947,0V12.746a1.41118,1.41118,0,0,1,.41608-1.00444l.5-.5,1.22765,1.22765a2.37016,2.37016,0,0,0,3.34812,0L10.23339,8.6747a.47359.47359,0,0,0,.13223-.41267Zm-4.15,6.21606a1.42211,1.42211,0,0,1-2.00889,0l-.33482-.33482L5.18409,9.70623v.64253a.4735.4735,0,0,0,.947,0V9.3292l1.40568.70283Z"/><path class="cls-1" d="M15.77057,5.71424c-.46029-.79343-.91384-1.45154-.93292-1.47916a.67823.67823,0,0,0-1.11609,0c-.01908.02763-.47263.68573-.93292,1.47916a5.36348,5.36348,0,0,0-.99586,2.52349,2.48683,2.48683,0,1,0,4.97365,0A5.36348,5.36348,0,0,0,15.77057,5.71424Z"/><path class="cls-1" d="M14.20267,2.36732a.47351.47351,0,0,0,.47346-.4735V.47353A.47405.47405,0,0,0,14.20264,0l-.805,0A5.25264,5.25264,0,0,0,9.65872,1.54865L8.50348,2.70388l1.67406,1.67406,1.15533-1.15533a2.90079,2.90079,0,0,1,2.06454-.8552Z"/></svg>