<svg id="Layer_1" data-name="Layer 1" xmlns="http://www.w3.org/2000/svg" viewBox="0 0 16.16194 18.26352"><defs><style>.cls-1{fill:#22346c;}</style></defs><title>icon</title><path class="cls-1" d="M8.08093,15.66922a4.32613,4.32613,0,1,1,4.32613-4.32629A4.3312,4.3312,0,0,1,8.08093,15.66922Zm0-7.69981a3.37352,3.37352,0,1,0,3.37352,3.37352A3.37745,3.37745,0,0,0,8.08093,7.96941Z"/><circle class="cls-1" cx="8.08095" cy="11.34299" r="0.36464"/><rect class="cls-1" x="7.84337" y="8.21519" width="0.50947" height="0.7657" rx="0.18322" ry="0.18322"/><path class="cls-1" d="M7.72041,11.81375a.18736.18736,0,0,1-.04734-.00607.18393.18393,0,0,1-.11129-.08554l-.07147-.12389A.18337.18337,0,0,1,7.5574,11.348l1.68611-.97359a.18344.18344,0,0,1,.25024.06709l.07147.12389a.18324.18324,0,0,1-.06679.25039l-1.68626.97351A.184.184,0,0,1,7.72041,11.81375Z"/><path class="cls-1" d="M10.62635,11.08824h.39926a.18322.18322,0,0,1,.18322.18322v.14295a.18337.18337,0,0,1-.18337.18337h-.3991a.18322.18322,0,0,1-.18322-.18322v-.1431A.18322.18322,0,0,1,10.62635,11.08824Z"/><rect class="cls-1" x="7.83315" y="13.71405" width="0.50954" height="0.76555" rx="0.18322" ry="0.18322"/><path class="cls-1" d="M5.13641,11.10538h.3991a.18322.18322,0,0,1,.18322.18322v.1431a.18322.18322,0,0,1-.18322.18322h-.399a.18322.18322,0,0,1-.18322-.18322v-.14318A.18314.18314,0,0,1,5.13641,11.10538Z"/><path class="cls-1" d="M8.3234,12.00019a.18924.18924,0,0,1-.0475-.00623.18348.18348,0,0,1-.11121-.08539L7.008,9.90522A.18327.18327,0,0,1,7.07521,9.655l.12389-.07147a.18324.18324,0,0,1,.09161-.02467.17941.17941,0,0,1,.0475.00638.18366.18366,0,0,1,.11129.08531l1.15666,2.00321a.18329.18329,0,0,1-.06732.25024L8.415,11.9756A.18293.18293,0,0,1,8.3234,12.00019Z"/><path class="cls-1" d="M13.92317,2.47494v.20013a1.91429,1.91429,0,0,1-3.82857,0V2.47494H6.06734v.20013a1.91429,1.91429,0,0,1-3.82858,0V2.47494H0V18.26352H16.16194V2.47494Zm.54459,13.93454H1.69418V6.2767H14.46776Z"/><path class="cls-1" d="M4.15306,0A1.351,1.351,0,0,0,2.802,1.351v1.324a1.351,1.351,0,0,0,2.70205,0V1.351A1.351,1.351,0,0,0,4.15306,0Z"/><path class="cls-1" d="M12.00888,0a1.35105,1.35105,0,0,0-1.3511,1.351v1.324a1.35106,1.35106,0,0,0,2.70212,0V1.351A1.35108,1.35108,0,0,0,12.00888,0Z"/></svg>