<svg id="Layer_1" data-name="Layer 1" xmlns="http://www.w3.org/2000/svg" viewBox="0 0 11.12611 12.0522"><defs><style>.cls-1{fill:#b9b9b9;}</style></defs><title>icon</title><path class="cls-1" d="M6.58233,3.70522a.31433.31433,0,0,0-.08775-.17053l-1.4812-1.4812a.3142.3142,0,0,0-.44435,0l-.51842.51842L3.68029,2.2016a.3142.3142,0,0,0-.44435,0L1.90285,3.53469a.31422.31422,0,0,0-.04726.38384l.31815.53022L.42167,6.20084a.3142.3142,0,0,0,0,.44436L.792,7.01548l-.33181.33181A1.56078,1.56078,0,0,0,0,8.4582V11.738a.31421.31421,0,1,0,.62842,0V8.4582a.93645.93645,0,0,1,.27611-.66654l.33181-.33181.81466.81466a1.57283,1.57283,0,0,0,2.2218,0l2.518-2.518a.31427.31427,0,0,0,.08775-.27384ZM3.82843,7.83016a.94371.94371,0,0,1-1.33309,0L2.27316,7.608l1.167-1.167v.42638a.31421.31421,0,1,0,.62842,0V6.19081l.9328.46639Z"/><path class="cls-1" d="M10.46526,3.79194c-.30544-.52652-.60642-.96323-.61908-.98157a.45007.45007,0,0,0-.74063,0c-.01266.01833-.31364.455-.61908.98157a3.55918,3.55918,0,0,0-.66085,1.67458,1.65024,1.65024,0,1,0,3.30049,0A3.55918,3.55918,0,0,0,10.46526,3.79194Z"/><path class="cls-1" d="M9.42482,1.57094A.31422.31422,0,0,0,9.739,1.25673V.31423A.31458.31458,0,0,0,9.4248,0L8.8906,0A3.48562,3.48562,0,0,0,6.40947,1.02767l-.76661.76661,1.1109,1.1109.76667-.76667a1.925,1.925,0,0,1,1.37-.5675Z"/></svg>