<svg id="Layer_1" data-name="Layer 1" xmlns="http://www.w3.org/2000/svg" viewBox="0 0 17.2394 22.08798"><defs><style>.cls-1{fill:#22346c;}.cls-2{fill:none;stroke:#22346c;stroke-linecap:round;stroke-miterlimit:10;stroke-width:1.07746px;}</style></defs><title>icon</title><path class="cls-1" d="M5.37653,18.21156a.5027.5027,0,0,0-.0307-.10074.527.527,0,0,0-.04958-.09319.50741.50741,0,0,0-.06681-.08191.5163.5163,0,0,0-.08191-.06681.53449.53449,0,0,0-.09319-.04958.50581.50581,0,0,0-.10068-.0307.54262.54262,0,0,0-.486.14708.51618.51618,0,0,0-.06681.08191.5453.5453,0,0,0-.08022.19392.51735.51735,0,0,0,0,.21012.51864.51864,0,0,0,.03064.10128.53038.53038,0,0,0,.19835.24142.49954.49954,0,0,0,.09313.04958.50739.50739,0,0,0,.10074.0307.51738.51738,0,0,0,.21012,0,.50469.50469,0,0,0,.10068-.0307.4966.4966,0,0,0,.09319-.04958.51321.51321,0,0,0,.08191-.06681.543.543,0,0,0,.15792-.3809A.53494.53494,0,0,0,5.37653,18.21156Z"/><rect class="cls-2" x="0.53873" y="3.23239" width="16.16194" height="18.31686" rx="3.0977" ry="3.0977"/><line class="cls-2" x1="3.23239" y1="18.31686" x2="0.53873" y2="18.31686"/><line class="cls-2" x1="2.15492" y1="11.31335" x2="0.53873" y2="11.31335"/><line class="cls-2" x1="3.23239" y1="9.96653" x2="0.53873" y2="9.96653"/><line class="cls-2" x1="2.15492" y1="8.6197" x2="0.53873" y2="8.6197"/><line class="cls-2" x1="3.23239" y1="7.27287" x2="0.53873" y2="7.27287"/><line class="cls-2" x1="2.15492" y1="5.92604" x2="0.53873" y2="5.92604"/><path class="cls-2" d="M.53873,15.6232a4.12243,4.12243,0,0,1,2.30885-1.07746c1.15442,0,1.15442,1.07746,2.30885,1.07746s2.30885-1.07746,3.46327-1.07746,1.87594,1.07746,3.24682,1.07746,1.37088-1.07746,2.5253-1.07746,1.15442,1.07746,2.30885,1.07746"/><path class="cls-1" d="M11.85209,3.36707V1.239A1.23909,1.23909,0,0,0,10.613,0H6.62642A1.23909,1.23909,0,0,0,5.38731,1.239V3.36707Z"/></svg>